<svg width="125" height="125" viewBox="0 0 125 125" fill="none" xmlns="http://www.w3.org/2000/svg">
<path d="M115 62.5C115 91.4949 91.4949 115 62.5 115C33.5051 115 10 91.4949 10 62.5C10 33.5051 33.5051 10 62.5 10C91.4949 10 115 33.5051 115 62.5Z" fill="#5FD2F4"/>
<path d="M26.9105 56.3636H28.3196V64.6818C28.3196 65.4242 28.1832 66.0549 27.9105 66.5739C27.6378 67.0928 27.2533 67.4867 26.7571 67.7557C26.2609 68.0246 25.6757 68.1591 25.0014 68.1591C24.3651 68.1591 23.7988 68.0436 23.3026 67.8125C22.8063 67.5777 22.4162 67.2443 22.1321 66.8125C21.848 66.3807 21.706 65.8674 21.706 65.2727H23.0923C23.0923 65.6023 23.1738 65.8902 23.3366 66.1364C23.5033 66.3788 23.7306 66.5682 24.0185 66.7045C24.3063 66.8409 24.634 66.9091 25.0014 66.9091C25.4067 66.9091 25.7514 66.8239 26.0355 66.6534C26.3196 66.483 26.5355 66.233 26.6832 65.9034C26.8348 65.5701 26.9105 65.1629 26.9105 64.6818V56.3636ZM34.5071 68.1818C33.7192 68.1818 33.0279 67.9943 32.4332 67.6193C31.8423 67.2443 31.3802 66.7197 31.0469 66.0455C30.7173 65.3712 30.5526 64.5833 30.5526 63.6818C30.5526 62.7727 30.7173 61.9792 31.0469 61.3011C31.3802 60.6231 31.8423 60.0966 32.4332 59.7216C33.0279 59.3466 33.7192 59.1591 34.5071 59.1591C35.295 59.1591 35.9844 59.3466 36.5753 59.7216C37.17 60.0966 37.6321 60.6231 37.9616 61.3011C38.295 61.9792 38.4616 62.7727 38.4616 63.6818C38.4616 64.5833 38.295 65.3712 37.9616 66.0455C37.6321 66.7197 37.17 67.2443 36.5753 67.6193C35.9844 67.9943 35.295 68.1818 34.5071 68.1818ZM34.5071 66.9773C35.1056 66.9773 35.598 66.8239 35.9844 66.517C36.3707 66.2102 36.6567 65.8068 36.8423 65.3068C37.0279 64.8068 37.1207 64.2652 37.1207 63.6818C37.1207 63.0985 37.0279 62.5549 36.8423 62.0511C36.6567 61.5473 36.3707 61.1402 35.9844 60.8295C35.598 60.5189 35.1056 60.3636 34.5071 60.3636C33.9086 60.3636 33.4162 60.5189 33.0298 60.8295C32.6435 61.1402 32.3575 61.5473 32.1719 62.0511C31.9863 62.5549 31.8935 63.0985 31.8935 63.6818C31.8935 64.2652 31.9863 64.8068 32.1719 65.3068C32.3575 65.8068 32.6435 66.2102 33.0298 66.517C33.4162 66.8239 33.9086 66.9773 34.5071 66.9773ZM40.6903 68V56.3636H42.0312V60.6591H42.1449C42.2434 60.5076 42.3797 60.3144 42.554 60.0795C42.732 59.8409 42.9858 59.6288 43.3153 59.4432C43.6487 59.2538 44.0994 59.1591 44.6676 59.1591C45.4025 59.1591 46.0502 59.3428 46.6108 59.7102C47.1714 60.0777 47.6089 60.5985 47.9233 61.2727C48.2377 61.947 48.3949 62.7424 48.3949 63.6591C48.3949 64.5833 48.2377 65.3845 47.9233 66.0625C47.6089 66.7367 47.1733 67.2595 46.6165 67.6307C46.0597 67.9981 45.4176 68.1818 44.6903 68.1818C44.1297 68.1818 43.6809 68.089 43.3438 67.9034C43.0066 67.714 42.7472 67.5 42.5653 67.2614C42.3835 67.0189 42.2434 66.8182 42.1449 66.6591H41.9858V68H40.6903ZM42.0085 63.6364C42.0085 64.2955 42.1051 64.8769 42.2983 65.3807C42.4915 65.8807 42.7737 66.2727 43.1449 66.5568C43.5161 66.8371 43.9706 66.9773 44.5085 66.9773C45.0691 66.9773 45.5369 66.8295 45.9119 66.5341C46.2907 66.2348 46.5748 65.8333 46.7642 65.3295C46.9574 64.822 47.054 64.2576 47.054 63.6364C47.054 63.0227 46.9593 62.4697 46.7699 61.9773C46.5843 61.4811 46.3021 61.089 45.9233 60.8011C45.5483 60.5095 45.0767 60.3636 44.5085 60.3636C43.9631 60.3636 43.5047 60.5019 43.1335 60.7784C42.7623 61.0511 42.482 61.4337 42.2926 61.9261C42.1032 62.4148 42.0085 62.9848 42.0085 63.6364ZM59.9915 60H58.5824C58.4991 59.5947 58.3532 59.2386 58.1449 58.9318C57.9403 58.625 57.6903 58.3674 57.3949 58.1591C57.1032 57.947 56.7794 57.7879 56.4233 57.6818C56.0672 57.5758 55.696 57.5227 55.3097 57.5227C54.6051 57.5227 53.9669 57.7008 53.3949 58.0568C52.8267 58.4129 52.3741 58.9375 52.0369 59.6307C51.7036 60.3239 51.5369 61.1742 51.5369 62.1818C51.5369 63.1894 51.7036 64.0398 52.0369 64.733C52.3741 65.4261 52.8267 65.9508 53.3949 66.3068C53.9669 66.6629 54.6051 66.8409 55.3097 66.8409C55.696 66.8409 56.0672 66.7879 56.4233 66.6818C56.7794 66.5758 57.1032 66.4186 57.3949 66.2102C57.6903 65.9981 57.9403 65.7386 58.1449 65.4318C58.3532 65.1212 58.4991 64.7652 58.5824 64.3636H59.9915C59.8854 64.9583 59.6922 65.4905 59.4119 65.9602C59.1316 66.4299 58.7831 66.8295 58.3665 67.1591C57.9498 67.4848 57.482 67.733 56.9631 67.9034C56.4479 68.0739 55.8968 68.1591 55.3097 68.1591C54.3172 68.1591 53.4347 67.9167 52.6619 67.4318C51.8892 66.947 51.2813 66.2576 50.8381 65.3636C50.3949 64.4697 50.1733 63.4091 50.1733 62.1818C50.1733 60.9545 50.3949 59.8939 50.8381 59C51.2813 58.1061 51.8892 57.4167 52.6619 56.9318C53.4347 56.447 54.3172 56.2045 55.3097 56.2045C55.8968 56.2045 56.4479 56.2898 56.9631 56.4602C57.482 56.6307 57.9498 56.8807 58.3665 57.2102C58.7831 57.536 59.1316 57.9337 59.4119 58.4034C59.6922 58.8693 59.8854 59.4015 59.9915 60ZM63.4276 62.75V68H62.0866V56.3636H63.4276V60.6364H63.5412C63.7457 60.1856 64.0526 59.8277 64.4616 59.5625C64.8745 59.2936 65.4238 59.1591 66.1094 59.1591C66.7041 59.1591 67.2249 59.2784 67.6719 59.517C68.1188 59.7519 68.4654 60.1136 68.7116 60.6023C68.9616 61.0871 69.0866 61.7045 69.0866 62.4545V68H67.7457V62.5455C67.7457 61.8523 67.5658 61.3163 67.206 60.9375C66.8499 60.5549 66.3556 60.3636 65.723 60.3636C65.2836 60.3636 64.8897 60.4564 64.5412 60.642C64.1965 60.8277 63.9238 61.0985 63.723 61.4545C63.526 61.8106 63.4276 62.2424 63.4276 62.75ZM74.108 68.2045C73.5549 68.2045 73.053 68.1004 72.6023 67.892C72.1515 67.6799 71.7936 67.375 71.5284 66.9773C71.2633 66.5758 71.1307 66.0909 71.1307 65.5227C71.1307 65.0227 71.2292 64.6174 71.4261 64.3068C71.6231 63.9924 71.8864 63.7462 72.2159 63.5682C72.5455 63.3902 72.9091 63.2576 73.3068 63.1705C73.7083 63.0795 74.1117 63.0076 74.517 62.9545C75.0473 62.8864 75.4773 62.8352 75.8068 62.8011C76.1402 62.7633 76.3826 62.7008 76.5341 62.6136C76.6894 62.5265 76.767 62.375 76.767 62.1591V62.1136C76.767 61.553 76.6136 61.1174 76.3068 60.8068C76.0038 60.4962 75.5436 60.3409 74.9261 60.3409C74.286 60.3409 73.7841 60.4811 73.4205 60.7614C73.0568 61.0417 72.8011 61.3409 72.6534 61.6591L71.3807 61.2045C71.608 60.6742 71.911 60.2614 72.2898 59.9659C72.6723 59.6667 73.089 59.4583 73.5398 59.3409C73.9943 59.2197 74.4413 59.1591 74.8807 59.1591C75.161 59.1591 75.483 59.1932 75.8466 59.2614C76.214 59.3258 76.5682 59.4602 76.9091 59.6648C77.2538 59.8693 77.5398 60.178 77.767 60.5909C77.9943 61.0038 78.108 61.5568 78.108 62.25V68H76.767V66.8182H76.6989C76.608 67.0076 76.4564 67.2102 76.2443 67.4261C76.0322 67.642 75.75 67.8258 75.3977 67.9773C75.0455 68.1288 74.6155 68.2045 74.108 68.2045ZM74.3125 67C74.8428 67 75.2898 66.8958 75.6534 66.6875C76.0208 66.4792 76.2973 66.2102 76.483 65.8807C76.6723 65.5511 76.767 65.2045 76.767 64.8409V63.6136C76.7102 63.6818 76.5852 63.7443 76.392 63.8011C76.2027 63.8542 75.983 63.9015 75.733 63.9432C75.4867 63.9811 75.2462 64.0152 75.0114 64.0455C74.7803 64.072 74.5928 64.0947 74.4489 64.1136C74.1004 64.1591 73.7746 64.233 73.4716 64.3352C73.1723 64.4337 72.9299 64.5833 72.7443 64.7841C72.5625 64.9811 72.4716 65.25 72.4716 65.5909C72.4716 66.0568 72.6439 66.4091 72.9886 66.6477C73.3371 66.8826 73.7784 67 74.3125 67ZM86.7372 61.2273L85.5327 61.5682C85.4569 61.3674 85.3452 61.1723 85.1974 60.983C85.0535 60.7898 84.8565 60.6307 84.6065 60.5057C84.3565 60.3807 84.0365 60.3182 83.6463 60.3182C83.1122 60.3182 82.6671 60.4413 82.3111 60.6875C81.9588 60.9299 81.7827 61.2386 81.7827 61.6136C81.7827 61.947 81.9039 62.2102 82.1463 62.4034C82.3887 62.5966 82.7675 62.7576 83.2827 62.8864L84.5781 63.2045C85.3584 63.3939 85.9399 63.6837 86.3224 64.0739C86.705 64.4602 86.8963 64.9583 86.8963 65.5682C86.8963 66.0682 86.7524 66.5152 86.4645 66.9091C86.1804 67.303 85.7827 67.6136 85.2713 67.8409C84.7599 68.0682 84.1652 68.1818 83.4872 68.1818C82.5971 68.1818 81.8603 67.9886 81.277 67.6023C80.6937 67.2159 80.3243 66.6515 80.169 65.9091L81.4418 65.5909C81.563 66.0606 81.7921 66.4129 82.1293 66.6477C82.4702 66.8826 82.9152 67 83.4645 67C84.0895 67 84.5857 66.8674 84.9531 66.6023C85.3243 66.3333 85.5099 66.0114 85.5099 65.6364C85.5099 65.3333 85.4039 65.0795 85.1918 64.875C84.9796 64.6667 84.6539 64.5114 84.2145 64.4091L82.7599 64.0682C81.9607 63.8788 81.3736 63.5852 80.9986 63.1875C80.6274 62.786 80.4418 62.2841 80.4418 61.6818C80.4418 61.1894 80.58 60.7538 80.8565 60.375C81.1368 59.9962 81.5175 59.6989 81.9986 59.483C82.4834 59.267 83.0327 59.1591 83.6463 59.1591C84.5099 59.1591 85.188 59.3485 85.6804 59.7273C86.1766 60.1061 86.5289 60.6061 86.7372 61.2273ZM92.5739 68.1818C91.733 68.1818 91.0076 67.9962 90.3977 67.625C89.7917 67.25 89.3239 66.7273 88.9943 66.0568C88.6686 65.3826 88.5057 64.5985 88.5057 63.7045C88.5057 62.8106 88.6686 62.0227 88.9943 61.3409C89.3239 60.6553 89.7822 60.1212 90.3693 59.7386C90.9602 59.3523 91.6496 59.1591 92.4375 59.1591C92.892 59.1591 93.3409 59.2348 93.7841 59.3864C94.2273 59.5379 94.6307 59.7841 94.9943 60.125C95.358 60.4621 95.6477 60.9091 95.8636 61.4659C96.0795 62.0227 96.1875 62.7083 96.1875 63.5227V64.0909H89.4602V62.9318H94.8239C94.8239 62.4394 94.7254 62 94.5284 61.6136C94.3352 61.2273 94.0587 60.9223 93.6989 60.6989C93.3428 60.4754 92.9223 60.3636 92.4375 60.3636C91.9034 60.3636 91.4413 60.4962 91.0511 60.7614C90.6648 61.0227 90.3674 61.3636 90.1591 61.7841C89.9508 62.2045 89.8466 62.6553 89.8466 63.1364V63.9091C89.8466 64.5682 89.9602 65.1269 90.1875 65.5852C90.4186 66.0398 90.7386 66.3864 91.1477 66.625C91.5568 66.8598 92.0322 66.9773 92.5739 66.9773C92.9261 66.9773 93.2443 66.928 93.5284 66.8295C93.8163 66.7273 94.0644 66.5758 94.2727 66.375C94.4811 66.1705 94.642 65.9167 94.7557 65.6136L96.0511 65.9773C95.9148 66.4167 95.6856 66.803 95.3636 67.1364C95.0417 67.4659 94.6439 67.7235 94.1705 67.9091C93.697 68.0909 93.1648 68.1818 92.5739 68.1818ZM98.2273 68V59.2727H99.5227V60.5909H99.6136C99.7727 60.1591 100.061 59.8087 100.477 59.5398C100.894 59.2708 101.364 59.1364 101.886 59.1364C101.985 59.1364 102.108 59.1383 102.256 59.142C102.403 59.1458 102.515 59.1515 102.591 59.1591V60.5227C102.545 60.5114 102.441 60.4943 102.278 60.4716C102.119 60.4451 101.951 60.4318 101.773 60.4318C101.348 60.4318 100.97 60.5208 100.636 60.6989C100.307 60.8731 100.045 61.1155 99.8523 61.4261C99.6629 61.733 99.5682 62.0833 99.5682 62.4773V68H98.2273Z" fill="black"/>
</svg>
