<svg xmlns="http://www.w3.org/2000/svg" viewBox="0 0 23 23"><g id="Group_2399" data-name="Group 2399" transform="translate(-8 -8)"><g id="Group_2398" data-name="Group 2398" transform="translate(8 8)"><path id="Path_7" data-name="Path 7" d="M33.75,19.5h0a5.767,5.767,0,0,0,5.75-5.75h0A5.767,5.767,0,0,0,33.75,8h0A5.767,5.767,0,0,0,28,13.75h0A5.767,5.767,0,0,0,33.75,19.5Z" transform="translate(-22.25 -8)" fill="currentColor"/><path id="Path_8" data-name="Path 8" d="M22,53.743a7.973,7.973,0,0,1-5,0,6.429,6.429,0,0,0-7.015,1.9A8.858,8.858,0,0,0,8,61.218a2.123,2.123,0,0,0,2.127,2.127H28.872A2.123,2.123,0,0,0,31,61.218a8.858,8.858,0,0,0-1.984-5.577A6.443,6.443,0,0,0,22,53.743Z" transform="translate(-8 -40.346)" fill="currentColor"/></g></g></svg>